<svg width="800" height="1000" xmlns="http://www.w3.org/2000/svg">
  <defs>
    <linearGradient id="protea-bg" x1="0%" y1="0%" x2="100%" y2="100%">
      <stop offset="0%" style="stop-color:#f8f3f0;stop-opacity:1" />
      <stop offset="100%" style="stop-color:#e8ddd8;stop-opacity:1" />
    </linearGradient>
    <radialGradient id="flower-grad" cx="50%" cy="40%">
      <stop offset="0%" style="stop-color:#d8c3be;stop-opacity:1" />
      <stop offset="60%" style="stop-color:#c4a9a3;stop-opacity:1" />
      <stop offset="100%" style="stop-color:#9d8378;stop-opacity:1" />
    </radialGradient>
  </defs>

  <!-- Background -->
  <rect width="800" height="1000" fill="url(#protea-bg)"/>

  <!-- Stem -->
  <path d="M 400 750 Q 380 600 390 450 Q 395 350 400 250"
        stroke="#7a9d7e" stroke-width="8" fill="none" opacity="0.7"/>

  <!-- Leaves -->
  <ellipse cx="350" cy="550" rx="45" ry="80" fill="#8db491" opacity="0.6" transform="rotate(-25 350 550)"/>
  <ellipse cx="450" cy="600" rx="40" ry="75" fill="#9dc2a1" opacity="0.6" transform="rotate(20 450 600)"/>

  <!-- Protea flower center -->
  <ellipse cx="400" cy="250" rx="120" ry="140" fill="url(#flower-grad)" opacity="0.9"/>

  <!-- Petals -->
  <ellipse cx="400" cy="180" rx="35" ry="90" fill="#d8c3be" opacity="0.8" transform="rotate(-10 400 180)"/>
  <ellipse cx="460" cy="200" rx="30" ry="85" fill="#c4a9a3" opacity="0.8" transform="rotate(25 460 200)"/>
  <ellipse cx="340" cy="200" rx="30" ry="85" fill="#c4a9a3" opacity="0.8" transform="rotate(-25 340 200)"/>
  <ellipse cx="490" cy="260" rx="28" ry="75" fill="#b89a94" opacity="0.8" transform="rotate(50 490 260)"/>
  <ellipse cx="310" cy="260" rx="28" ry="75" fill="#b89a94" opacity="0.8" transform="rotate(-50 310 260)"/>

  <!-- Texture details -->
  <circle cx="400" cy="250" r="40" fill="#9d8378" opacity="0.3"/>
  <circle cx="380" cy="235" r="8" fill="#7a6660" opacity="0.4"/>
  <circle cx="420" cy="245" r="8" fill="#7a6660" opacity="0.4"/>
  <circle cx="400" cy="265" r="8" fill="#7a6660" opacity="0.4"/>

  <!-- Title -->
  <text x="400" y="900" font-family="'Libre Baskerville', serif" font-size="32" fill="#5a4a45" text-anchor="middle" opacity="0.8">Botanical Protea</text>
  <text x="400" y="940" font-family="Montserrat, sans-serif" font-size="18" fill="#7a6a65" text-anchor="middle" opacity="0.6">Watercolor • 2024</text>
</svg>
