<svg width="800" height="1000" xmlns="http://www.w3.org/2000/svg">
  <defs>
    <linearGradient id="protea-print-bg" x1="0%" y1="0%" x2="100%" y2="100%">
      <stop offset="0%" style="stop-color:#fdfcfb;stop-opacity:1" />
      <stop offset="100%" style="stop-color:#ebe5e1;stop-opacity:1" />
    </linearGradient>
    <radialGradient id="protea-flower" cx="50%" cy="45%">
      <stop offset="0%" style="stop-color:#e8d4cf;stop-opacity:1" />
      <stop offset="50%" style="stop-color:#d8c3be;stop-opacity:1" />
      <stop offset="100%" style="stop-color:#b89a94;stop-opacity:1" />
    </radialGradient>
  </defs>

  <rect width="800" height="1000" fill="url(#protea-print-bg)"/>

  <!-- Large protea flower -->
  <ellipse cx="400" cy="400" rx="180" ry="200" fill="url(#protea-flower)" opacity="0.9"/>

  <!-- Outer petals -->
  <ellipse cx="400" cy="280" rx="55" ry="130" fill="#d8c3be" opacity="0.85" transform="rotate(-5 400 280)"/>
  <ellipse cx="520" cy="350" rx="50" ry="120" fill="#c9b4af" opacity="0.85" transform="rotate(35 520 350)"/>
  <ellipse cx="280" cy="350" rx="50" ry="120" fill="#c9b4af" opacity="0.85" transform="rotate(-35 280 350)"/>
  <ellipse cx="550" cy="450" rx="45" ry="110" fill="#bda8a3" opacity="0.85" transform="rotate(65 550 450)"/>
  <ellipse cx="250" cy="450" rx="45" ry="110" fill="#bda8a3" opacity="0.85" transform="rotate(-65 250 450)"/>
  <ellipse cx="480" cy="520" rx="40" ry="100" fill="#b89a94" opacity="0.85" transform="rotate(85 480 520)"/>
  <ellipse cx="320" cy="520" rx="40" ry="100" fill="#b89a94" opacity="0.85" transform="rotate(-85 320 520)"/>

  <!-- Center texture -->
  <circle cx="400" cy="400" r="80" fill="#9d8378" opacity="0.4"/>
  <circle cx="370" cy="380" r="15" fill="#7a6660" opacity="0.3"/>
  <circle cx="430" cy="390" r="15" fill="#7a6660" opacity="0.3"/>
  <circle cx="400" cy="420" r="15" fill="#7a6660" opacity="0.3"/>
  <circle cx="385" cy="410" r="12" fill="#8d7770" opacity="0.3"/>
  <circle cx="415" cy="405" r="12" fill="#8d7770" opacity="0.3"/>

  <!-- Stem -->
  <path d="M 400 600 L 400 900" stroke="#7a9d7e" stroke-width="12" opacity="0.6"/>

  <!-- Leaves -->
  <ellipse cx="320" cy="720" rx="50" ry="110" fill="#8db491" opacity="0.7" transform="rotate(-35 320 720)"/>
  <ellipse cx="480" cy="780" rx="45" ry="100" fill="#9dc2a1" opacity="0.7" transform="rotate(30 480 780)"/>

  <text x="400" y="970" font-family="'Libre Baskerville', serif" font-size="24" fill="#5a4a45" text-anchor="middle" opacity="0.5">Protea Botanical Print</text>
</svg>
